<svg width="24" height="24" viewBox="0 0 24 24" fill="none" xmlns="http://www.w3.org/2000/svg" color="text" class="Svg-sc-94c67456-0 dccQIn" style="width: 25px; height: 25px; position: absolute; object-fit: contain;"><path fill-rule="evenodd" clip-rule="evenodd" d="M1.68872 15.0022C2.05893 16.8142 2.90523 18.2979 4.0532 19.4545V17.9052C3.07433 17.0749 2.26907 16.0923 1.68872 15.0022Z" fill="#606060"></path><path fill-rule="evenodd" clip-rule="evenodd" d="M6.60742 21.2828C7.87318 21.9157 9.28219 22.304 10.7232 22.448V20.6512C9.24689 20.5084 7.85636 20.1201 6.60742 19.5356V21.2828Z" fill="#606060"></path><path fill-rule="evenodd" clip-rule="evenodd" d="M13.2773 22.4489C14.7184 22.3056 16.1274 21.9182 17.3931 21.2857V19.5356C16.1438 20.1201 14.7537 20.508 13.2773 20.6512V22.4489Z" fill="#606060"></path><path fill-rule="evenodd" clip-rule="evenodd" d="M19.947 19.4577C21.0954 18.3007 21.9421 16.8165 22.3119 15.0012C21.7312 16.0917 20.9259 17.0743 19.947 17.905V19.4577Z" fill="#606060"></path><path fill-rule="evenodd" clip-rule="evenodd" d="M12 1.5C17.7994 1.5 22.5 5.51071 22.5 10.4584C22.5 15.4061 17.7989 19.4169 12 19.4169C6.20105 19.4169 1.5 15.4061 1.5 10.4584C1.5 5.51071 6.20105 1.5 12 1.5ZM12 3.06989C16.8558 3.06989 20.7926 6.37795 20.7926 10.458C20.7926 14.5381 16.8562 17.8461 12 17.8461C7.14381 17.8461 3.20779 14.5389 3.20779 10.4584C3.20779 6.37795 7.14422 3.0703 12 3.0703V3.06989Z" fill="#606060"></path><path fill-rule="evenodd" clip-rule="evenodd" d="M12.0002 4.74976C15.8221 4.74976 18.92 7.3055 18.92 10.4584C18.92 13.6113 15.8217 16.1671 12.0002 16.1671C8.17865 16.1671 5.08032 13.6113 5.08032 10.4584C5.08032 7.3055 8.17865 4.74976 12.0002 4.74976Z" fill="#606060"></path><path d="M10.4898 7.86382C10.9478 7.66139 11.4716 7.57452 11.918 7.61642C12.375 7.65932 12.6676 7.82501 12.797 8.03447C13.0932 8.5138 12.9526 9.15182 12.2386 9.75681C11.4566 10.4194 11.0103 10.9005 11.0103 11.6474C11.0103 11.8873 11.2048 12.0818 11.4447 12.0818C11.6846 12.0818 11.8791 11.8873 11.8791 11.6474C11.8791 11.3412 12.0026 11.0956 12.8003 10.4197C13.666 9.68614 14.1614 8.58966 13.5361 7.57775C13.2048 7.04159 12.5925 6.80709 11.9992 6.75139C11.3952 6.6947 10.7231 6.81082 10.1386 7.06913C9.91912 7.16611 9.81984 7.42262 9.91682 7.64207C10.0138 7.86152 10.2703 7.9608 10.4898 7.86382Z" fill="white"></path><path d="M11.4447 14.0695C11.7646 14.0695 12.0239 13.8102 12.0239 13.4903C12.0239 13.1704 11.7646 12.911 11.4447 12.911C11.1248 12.911 10.8655 13.1704 10.8655 13.4903C10.8655 13.8102 11.1248 14.0695 11.4447 14.0695Z" fill="white"></path><path d="M10.4898 7.86382C10.9478 7.66139 11.4716 7.57452 11.918 7.61642C12.375 7.65932 12.6676 7.82501 12.797 8.03447C13.0932 8.5138 12.9526 9.15182 12.2386 9.75681C11.4566 10.4194 11.0103 10.9005 11.0103 11.6474C11.0103 11.8873 11.2048 12.0818 11.4447 12.0818C11.6846 12.0818 11.8791 11.8873 11.8791 11.6474C11.8791 11.3412 12.0026 11.0956 12.8003 10.4197C13.666 9.68614 14.1614 8.58966 13.5361 7.57775C13.2048 7.04159 12.5925 6.80709 11.9992 6.75139C11.3952 6.6947 10.7231 6.81082 10.1386 7.06913C9.91912 7.16611 9.81984 7.42262 9.91682 7.64207C10.0138 7.86152 10.2703 7.9608 10.4898 7.86382Z" stroke="white" stroke-width="0.25" stroke-linecap="round" stroke-linejoin="round"></path><path d="M11.4447 14.0695C11.7646 14.0695 12.0239 13.8102 12.0239 13.4903C12.0239 13.1704 11.7646 12.911 11.4447 12.911C11.1248 12.911 10.8655 13.1704 10.8655 13.4903C10.8655 13.8102 11.1248 14.0695 11.4447 14.0695Z" stroke="white" stroke-width="0.25" stroke-linecap="round" stroke-linejoin="round"></path></svg>